<svg xmlns="http://www.w3.org/2000/svg">
    <defs>
        <style>
        .img { display: none }
        .img:target { display: inline }
        </style>
    </defs>

    <svg viewBox="0 0 97 98" xmlns="http://www.w3.org/2000/svg">
      <g id="logo" class="img">
        <path fill-rule="evenodd" clip-rule="evenodd" d="M51.2815 8.33591L59.9408 16.038L84.3948 38.9928C82.9987 42.9001 80.5688 46.4093 77.3336 49.1904C74.0985 51.9716 70.1643 53.9334 65.901 54.8912C61.6377 55.8491 57.1854 55.7716 52.9627 54.6661C48.7401 53.5605 44.8858 51.4632 41.7622 48.5714C38.6387 45.6796 36.3486 42.0882 35.1072 38.135C33.8658 34.1818 33.7139 29.9967 34.6658 25.9731C35.6178 21.9496 37.6422 18.2197 40.5489 15.1344C43.4555 12.0491 47.1488 9.70958 51.2815 8.33591Z" fill="#AFB747"/>
        <path d="M59.9554 16.0793L51.2815 8.4048C47.1662 9.7792 43.4898 12.1145 40.5973 15.1913C37.7049 18.2682 35.6913 21.9858 34.7456 25.9952C33.8 30.0045 33.9532 34.174 35.1909 38.1124C36.4286 42.0508 38.7103 45.6288 41.8217 48.5106C44.9331 51.3924 48.7722 53.4834 52.9786 54.5874C57.185 55.6914 61.6207 55.7721 65.8693 54.822C70.118 53.8719 74.0402 51.9221 77.2678 49.1557C80.4955 46.3893 82.9226 42.8969 84.3215 39.0065L59.9554 16.0793ZM51.3694 8.26702C62.6807 18.3252 73.3472 28.6039 84.4534 38.9514C83.0625 42.8743 80.6326 46.3997 77.3925 49.1955C74.1524 51.9912 70.2089 53.9654 65.9333 54.9319C61.6577 55.8984 57.1909 55.8254 52.9536 54.72C48.7163 53.6145 44.848 51.5128 41.713 48.613C38.5781 45.7131 36.2798 42.1106 35.0346 38.1446C33.7893 34.1787 33.6382 29.9799 34.5954 25.9439C35.5526 21.9078 37.5866 18.1673 40.5058 15.0748C43.4251 11.9822 47.1334 9.63942 51.2815 8.26702H51.3694Z" fill="#AFB747"/>
        <path opacity="0.85" fill-rule="evenodd" clip-rule="evenodd" d="M53.8456 97.2752L0 47.1082L29.7433 17.7741L60.3217 22.2521L95.662 57.0562L53.8456 97.2752Z" fill="#D8D9D9"/>
        <path fill-rule="evenodd" clip-rule="evenodd" d="M54.8126 88.6362L2.97433 40.3706L43.223 1.1436L59.9994 16.038L95.5155 49.4643L54.8126 88.6362Z" fill="#83BB30"/>
        <path d="M3.06226 40.3706L54.798 88.5949L95.4276 49.4643L59.9555 16.0793L43.223 1.22627L3.06226 40.3706ZM54.7687 88.6775L2.93039 40.3706L43.223 1.06093C61.1276 17.0163 78.1091 33.0681 95.6035 49.4643L54.8127 88.7189L54.7687 88.6775Z" fill="#83BB30"/>
        <path fill-rule="evenodd" clip-rule="evenodd" d="M51.2815 8.33591L59.9408 16.038L84.3948 38.9928C80.9516 48.6376 73.1568 55.5268 59.5891 55.8437C46.0215 56.1606 33.2158 43.6223 34.0509 31.2631C34.8861 18.9039 41.2597 11.6703 51.2815 8.33591Z" fill="#6F9E2F"/>
        <path fill-rule="evenodd" clip-rule="evenodd" d="M72.9077 56.7393L73.0542 71.2341L55.3254 88.4295L55.3694 68.7264L61.1862 65.0063V41.6106L84.1017 39.0754L88.2628 42.9885L72.9077 56.7393Z" fill="#066878"/>
        <path d="M72.9077 71.2066L72.7612 56.6979L88.0431 43.0022L83.9698 39.1719L61.1862 41.6795V65.0201L55.3255 68.7678V88.2917L72.9077 71.2066ZM72.9077 57.0424L73.0542 70.8208L55.0617 88.2779C55.0617 81.747 55.0617 75.2298 55.0617 68.6989L61.1422 64.8272V41.9827C69.3766 41.0641 77.6061 40.1455 85.8306 39.227L87.9698 43.4983L72.9077 57.0424Z" fill="#066878"/>
        <path fill-rule="evenodd" clip-rule="evenodd" d="M61.1862 56.4912V41.528L84.3947 38.9652L84.5852 39.1443C82.9267 43.8253 79.7989 47.924 75.614 50.9001C71.4291 53.8762 66.3836 55.5902 61.1422 55.8161" fill="#045360"/>
        <path d="M61.1862 41.5418V55.7886C66.4233 55.5695 71.4668 53.863 75.6519 50.8942C79.8369 47.9253 82.9669 43.8335 84.6292 39.1581L84.4534 38.9928L61.1862 41.5418ZM61.1862 55.8161V41.5004C68.937 40.6599 76.6879 39.8332 84.4387 38.9514L84.6438 39.1443C82.9817 43.8233 79.853 47.9198 75.6688 50.8954C71.4847 53.871 66.441 55.5864 61.2008 55.8161H61.1862Z" fill="#045360"/>
        <path fill-rule="evenodd" clip-rule="evenodd" d="M75.8381 54.9619L75.9992 68.9193L59.721 84.5991L59.7796 74.1827L68.5121 68.1202V44.9726L84.2775 39.1305L85.0541 39.0479L89.2299 42.9747L75.8381 54.9619Z" fill="#068297"/>
        <path d="M74.3729 69.6083L74.2264 54.9068L87.5303 42.9885L83.5157 39.1443L82.7684 39.227L67.1202 45.0139V68.3269L59.7943 74.0173V83.7449L74.3729 69.6083ZM74.3729 55.2374L74.5194 69.0158L59.0031 83.924V73.6453L67.003 68.134V45.3446L82.5633 39.5852L83.3691 39.5026C84.7464 40.8115 86.1383 42.1205 87.5303 43.4156L74.3729 55.2374Z" fill="#068297"/>
        <path fill-rule="evenodd" clip-rule="evenodd" d="M67.0469 55.1134V44.945L82.9735 39.0616L83.7647 38.9652L84.0285 39.227C82.726 42.8998 80.5033 46.2241 77.5478 48.9195C74.5923 51.6149 70.9907 53.6022 67.0469 54.7138" fill="#066878"/>
        <path d="M67.0469 44.9863V54.6312C70.9713 53.4997 74.5559 51.5121 77.5084 48.8305C80.4417 46.1531 82.6347 42.8421 83.8966 39.1856L83.6768 38.979L82.9296 39.0616L67.0469 44.9863ZM67.0469 54.7138V44.9174L83.0175 39.0065L83.838 38.9101L84.1603 39.2132C82.8799 42.8712 80.6723 46.1813 77.7281 48.858C74.7408 51.5653 71.1164 53.5715 67.1495 54.7138H67.0616H67.0469Z" fill="#066878"/>
        <path fill-rule="evenodd" clip-rule="evenodd" d="M10.9596 32.4756L18.9302 39.9572L31.648 40.1088L57.3913 14.357L43.223 1.04716L10.9596 32.4756Z" fill="#068297"/>
        <path d="M18.8863 40.095L10.8717 32.5858L43.223 1.06093C47.9702 5.52512 52.7174 9.9893 57.4646 14.4535C48.8689 23.0604 40.2731 31.6673 31.6773 40.2741L18.9009 40.1226L18.8863 40.095ZM11.0475 32.5307L18.9595 39.9572L31.6187 40.1088L57.3035 14.4122L43.223 1.18493L11.0475 32.5307Z" fill="#068297"/>
        <path fill-rule="evenodd" clip-rule="evenodd" d="M34.7835 37.0087L57.3913 14.4673L50.9885 8.44613C45.0321 10.5091 40.0899 14.559 37.102 19.8254C34.1141 25.0919 33.2889 31.2074 34.7835 37.0087Z" fill="#068297"/>
        <path d="M57.4353 14.4948L34.7542 37.2016V37.0913C33.2337 31.2691 34.0471 25.1241 37.039 19.83C40.0308 14.5359 44.9916 10.4637 50.9738 8.39101L57.4353 14.4535V14.4948ZM34.8128 36.8984L57.3035 14.4673L50.9738 8.51502C45.0641 10.5779 40.1619 14.604 37.1926 19.8331C34.2234 25.0622 33.3925 31.1327 34.8568 36.8984H34.8128Z" fill="#068297"/>
        <path fill-rule="evenodd" clip-rule="evenodd" d="M96.1895 49.4643L75.8381 69.0571L75.6916 55.0721L89.2592 42.9334L96.1895 49.4643Z" fill="#FABD07"/>
        <path d="M74.5194 68.8918L94.7389 49.4643L87.9112 43.016L74.3729 55.1134L74.5194 68.8918ZM95.5594 49.5056L75.0469 69.1949C75.0273 64.4827 74.9931 59.7889 74.9443 55.1134L88.5705 42.9196L95.6034 49.5332L95.5594 49.5056Z" fill="#FABD07"/>
        <path d="M55.3254 46.8464H9.90466V88.1815H55.3254V46.8464Z" fill="#E33B24"/>
        <path d="M55.2668 89.5593H9.84604V46.8464H55.2668V89.5593ZM9.84604 88.1815H55.2668V46.8464H9.84604V88.1815Z" fill="#E33B24"/>
        <path fill-rule="evenodd" clip-rule="evenodd" d="M44.9666 88.1815H55.3254V57.5935L49.6405 51.3244L44.7175 46.8464H9.90466V56.4637L44.9666 88.1815Z" fill="#BC3222"/>
        <path d="M55.2668 89.5593H44.908C33.2353 78.6652 21.5675 67.7574 9.90466 56.8357V46.8464H44.7028C48.4789 50.3431 52.0263 54.0517 55.3254 57.9518V89.5593H55.2668ZM45.0105 88.1815H55.2668V57.5798L49.5819 51.3106L44.7175 46.8464H9.90466V56.4086L45.0105 88.1815Z" fill="#BC3222"/>
        <path fill-rule="evenodd" clip-rule="evenodd" d="M55.4134 46.8464H10.4028L55.3254 88.6913L55.4134 46.8464Z" fill="#FDFDFD"/>
        <path d="M9.91932 46.8464H54.9738C54.9738 60.8636 54.9494 74.8762 54.9005 88.8842L9.7728 46.8464H9.91932ZM55.4133 46.8464H10.608L55.3254 88.4984L55.4133 46.8464Z" fill="#FDFDFD"/>
        <path fill-rule="evenodd" clip-rule="evenodd" d="M55.3254 46.8464H40.4391C44.2227 51.1726 49.483 54.1328 55.3254 55.2236V46.8464Z" fill="#D8D9D9"/>
        <path d="M40.3806 46.8464H55.3254V55.3615C49.4749 54.2532 44.2082 51.2854 40.4099 46.9566L40.2487 46.8464H40.3806ZM55.3254 46.8464H40.6736C42.5386 48.9507 44.7676 50.744 47.2669 52.1511C49.7532 53.5646 52.4789 54.5665 55.3254 55.1134V46.8464Z" fill="#D8D9D9"/>
        <path fill-rule="evenodd" clip-rule="evenodd" d="M34.681 37.2705L57.3913 14.4673L50.9885 8.44613C40.5124 12.0698 31.5455 25.2557 34.681 37.2705Z" fill="#066878"/>
        <path fill-rule="evenodd" clip-rule="evenodd" d="M64.9371 0C70.046 0 75.0402 1.42466 79.2881 4.09381C83.5361 6.76297 86.8469 10.5567 88.802 14.9954C90.7571 19.434 91.2687 24.3182 90.272 29.0302C89.2753 33.7423 86.8151 38.0706 83.2025 41.4678C79.59 44.8649 74.9873 47.1785 69.9765 48.1157C64.9657 49.053 59.7719 48.572 55.0519 46.7334C50.3318 44.8949 46.2975 41.7814 43.4592 37.7867C40.6208 33.7921 39.1058 29.0956 39.1058 24.2912C39.1058 17.8488 41.8273 11.6702 46.6716 7.11474C51.5159 2.55925 58.0862 0 64.9371 0" fill="#FDFDFD"/>
        <path d="M65.5817 9.64485H62.6514V39.9572H65.5817V9.64485Z" fill="#242845"/>
        <path d="M56.7906 41.3351V28.9345C57.6258 28.7141 57.1423 28.4247 56.7027 28.0389C56.1836 27.5998 55.7621 27.0684 55.4624 26.4753C55.1628 25.8823 54.991 25.2393 54.957 24.5834C54.9229 23.9276 55.0273 23.2719 55.264 22.6542C55.5008 22.0365 55.8653 21.469 56.3364 20.9844C56.856 20.4395 57.5175 20.0311 58.2558 19.7995V11.0227H58.0361V10.4578L59.1789 9.36929L60.3071 8.26702L61.4499 9.35551L62.5928 10.4302V19.8133C63.0266 20.0025 63.4269 20.2535 63.7796 20.5573C64.2975 20.9986 64.7178 21.5316 65.0165 22.1258C65.3152 22.7199 65.4865 23.3636 65.5205 24.0201C65.5545 24.6765 65.4506 25.3328 65.2147 25.9515C64.9789 26.5701 64.6157 27.139 64.1459 27.6256C63.721 28.0527 63.2375 28.411 64.058 28.6728V41.3351H56.7906Z" fill="#C4C5C5"/>
        <path d="M62.6514 39.9986V8.26701H61.9041L61.8748 9.13505L63.0177 8.04656L64.1752 6.94429L65.3327 8.04656L66.4608 9.64485H67.0469V9.65863H67.0616L67.0469 9.67241L67.3253 39.9572L62.6514 39.9986Z" fill="#E21E24"/>
        <path d="M62.6514 39.9986L62.5049 23.4232H67.047L67.1935 39.9572L62.6514 39.9986Z" fill="#242845"/>
        <path fill-rule="evenodd" clip-rule="evenodd" d="M60.4829 20.9431C61.1889 20.2089 62.1106 19.6882 63.1315 19.4469C64.1523 19.2057 65.2263 19.2547 66.2175 19.5877C67.2087 19.9208 68.0725 20.5229 68.6996 21.3179C69.3267 22.1129 69.6888 23.065 69.7402 24.0537C69.7915 25.0424 69.5297 26.0231 68.988 26.8718C68.4463 27.7204 67.6489 28.3989 66.6969 28.8212C65.745 29.2435 64.6811 29.3906 63.6402 29.244C62.5992 29.0974 61.6279 28.6636 60.8492 27.9976C59.8111 27.1048 59.1902 25.8626 59.1216 24.5413C59.053 23.22 59.5423 21.9267 60.4829 20.9431Z" fill="#242845"/>
        <path d="M64.1752 19.3724C63.4854 19.4006 62.8085 19.557 62.1833 19.8324C61.5582 20.1079 60.9972 20.497 60.5327 20.9773C60.0683 21.4576 59.7095 22.0197 59.4772 22.631C59.2448 23.2423 59.1434 23.8909 59.1789 24.5393C59.2116 25.187 59.3797 25.8224 59.6735 26.4091C59.9673 26.9958 60.3811 27.5223 60.8913 27.9586C61.4015 28.3949 61.9981 28.7324 62.6471 28.9518C63.296 29.1713 63.9845 29.2684 64.6733 29.2377C65.3622 29.2069 66.0378 29.0489 66.6617 28.7726C67.2856 28.4963 67.8455 28.1071 68.3094 27.6273C68.7733 27.1475 69.1323 26.5865 69.3656 25.9763C69.599 25.366 69.7023 24.7186 69.6696 24.0708C69.6396 23.4222 69.4733 22.7856 69.1804 22.1977C68.8875 21.6098 68.4737 21.0823 67.9629 20.6455C67.4521 20.2087 66.8545 19.8714 66.2044 19.6529C65.5543 19.4344 64.8646 19.339 64.1752 19.3724ZM60.4389 20.9018C60.9125 20.4094 61.4847 20.0098 62.1229 19.7259C62.7611 19.442 63.4525 19.2793 64.1577 19.2473C64.8628 19.2153 65.5678 19.3146 66.232 19.5394C66.8963 19.7642 67.5068 20.1101 68.0286 20.5573C69.0847 21.4568 69.718 22.7136 69.7894 24.0518C69.8608 25.39 69.3645 26.7001 68.4095 27.6945C67.9353 28.1867 67.3625 28.5861 66.7241 28.8702C66.0856 29.1542 65.3939 29.3171 64.6884 29.3498C63.983 29.3824 63.2776 29.284 62.6126 29.0603C61.9476 28.8366 61.3359 28.4919 60.8126 28.0458C60.2892 27.5998 59.8644 27.0612 59.5624 26.4608C59.2604 25.8604 59.0871 25.21 59.0524 24.5466C58.9823 23.2068 59.4811 21.8957 60.4389 20.9018Z" fill="#242845"/>
        <path fill-rule="evenodd" clip-rule="evenodd" d="M62.5488 22.693C62.8861 22.3449 63.3255 22.0986 63.8115 21.9851C64.2976 21.8717 64.8084 21.8961 65.2797 22.0554C65.7509 22.2147 66.1615 22.5017 66.4594 22.8801C66.7574 23.2586 66.9295 23.7116 66.954 24.182C66.9785 24.6523 66.8543 25.1189 66.5971 25.523C66.3399 25.927 65.9611 26.2504 65.5087 26.4522C65.0562 26.654 64.5504 26.7253 64.0549 26.6571C63.5594 26.5888 63.0965 26.3841 62.7247 26.0687C62.4749 25.8593 62.272 25.6054 62.1277 25.3215C61.9835 25.0377 61.9007 24.7297 61.8844 24.4155C61.868 24.1012 61.9183 23.7871 62.0324 23.4914C62.1465 23.1956 62.322 22.9242 62.5488 22.693Z" fill="#C4C5C5"/>
        <path d="M62.5928 22.7343C62.3722 22.9603 62.2017 23.2253 62.091 23.5139C61.9803 23.8025 61.9317 24.1089 61.9481 24.4153C61.9805 25.0314 62.2701 25.6107 62.754 26.0273C62.9931 26.2344 63.2737 26.3945 63.5794 26.4984C63.8851 26.6023 64.2098 26.6479 64.5344 26.6325C64.859 26.6171 65.1772 26.5411 65.4702 26.4088C65.7632 26.2765 66.0253 26.0906 66.2411 25.862C66.4626 25.6394 66.6339 25.3769 66.7447 25.0904C66.8555 24.8039 66.9035 24.4992 66.8858 24.1948C66.8534 23.5786 66.5638 22.9993 66.0799 22.5827C65.8373 22.3867 65.5555 22.2382 65.2511 22.1459C64.9467 22.0537 64.6257 22.0195 64.307 22.0454C63.6518 22.0758 63.0358 22.3481 62.5928 22.8032V22.7343ZM62.5049 22.6654C62.73 22.4256 63.0045 22.2312 63.3117 22.0939C63.6189 21.9566 63.9525 21.8791 64.2924 21.8663C64.634 21.8504 64.9756 21.8982 65.2974 22.007C65.6193 22.1158 65.9151 22.2833 66.1678 22.5001C66.4216 22.7144 66.6276 22.9739 66.7739 23.2636C66.9202 23.5533 67.004 23.8675 67.0204 24.1878C67.0367 24.5082 66.9853 24.8284 66.8692 25.13C66.753 25.4316 66.5744 25.7085 66.3437 25.9447C66.1157 26.1833 65.8398 26.377 65.5317 26.5146C65.2236 26.6522 64.8895 26.731 64.5489 26.7464C64.2082 26.7617 63.8677 26.7134 63.547 26.6042C63.2263 26.495 62.9319 26.327 62.6807 26.11C62.4246 25.8961 62.2173 25.6357 62.0713 25.3444C61.9252 25.0532 61.8434 24.7371 61.8309 24.4153C61.8152 24.0962 61.8666 23.7774 61.9823 23.4771C62.0979 23.1768 62.2755 22.901 62.5049 22.6654Z" fill="#242845"/>
      </g>
    </svg>

    <svg viewBox="0 0 120 121" xmlns="http://www.w3.org/2000/svg">
      <g id="logo-white" class="img">
        <path fill-rule="evenodd" clip-rule="evenodd" d="M111.826 58.5945L119.67 66.4875L95.0003 91.7745L94.7846 74.7727L111.826 58.5945ZM47.0638 40.622L37.0137 51.1819L21.8553 51.1329L12.3543 41.6515L52.5448 0L58.6827 5.80454C53.5604 9.84164 49.731 15.2891 47.6665 21.4757C45.602 27.6623 45.3925 34.3178 47.0638 40.622ZM68.6348 63.3989C75.0678 65.7954 82.1018 66.0557 88.6945 64.1413C95.2871 62.2269 101.088 58.2397 105.237 52.7703L109.217 56.7609L92.0588 73.047L92.3235 95.0199L73.4294 114.365L67.5464 120.434V120.199L68.5269 120.268L68.6348 63.3989ZM9.69711 120.797H67.8013L9.69711 63.2322V120.797ZM79.9987 28.856C80.6076 28.856 81.2029 29.0366 81.7092 29.3749C82.2155 29.7132 82.6101 30.194 82.8431 30.7566C83.0761 31.3191 83.1371 31.9382 83.0183 32.5354C82.8995 33.1326 82.6063 33.6812 82.1757 34.1118C81.7451 34.5424 81.1966 34.8356 80.5993 34.9544C80.0021 35.0732 79.3831 35.0122 78.8205 34.7792C78.2579 34.5461 77.7771 34.1515 77.4388 33.6452C77.1005 33.1389 76.9199 32.5437 76.9199 31.9348C76.9186 31.5301 76.9974 31.1292 77.1517 30.755C77.3059 30.3809 77.5327 30.041 77.8188 29.7549C78.1049 29.4687 78.4449 29.242 78.819 29.0877C79.1931 28.9335 79.594 28.8547 79.9987 28.856ZM83.2343 25.6008C84.4485 26.1808 85.4738 27.0926 86.1915 28.2308C86.9092 29.3691 87.2901 30.6872 87.2901 32.0328C87.2901 33.3784 86.9092 34.6966 86.1915 35.8348C85.4738 36.973 84.4485 37.8849 83.2343 38.4649V53.1723H77.3514V38.4649C76.1372 37.8849 75.1119 36.973 74.3942 35.8348C73.6765 34.6966 73.2956 33.3784 73.2956 32.0328C73.2956 30.6872 73.6765 29.3691 74.3942 28.2308C75.1119 27.0926 76.1372 26.1808 77.3514 25.6008V11.2365L80.2929 8.21656L83.2343 11.2365V25.6008ZM9.17745 62.9479L0 53.8587L9.8736 43.6321L20.3943 54.1234L38.3766 54.1822L48.3777 43.6909C50.0174 47.9948 52.5141 51.9208 55.7164 55.231C58.9187 58.5412 62.7599 61.1665 67.0071 62.9479H9.17745Z" fill="white"/>
      </g>
    </svg>

    <svg viewBox="0 0 24 24" xmlns="http://www.w3.org/2000/svg">
      <g id="fb" class="img">
        <path fill-rule="evenodd" clip-rule="evenodd" d="M11.6087 0C5.19739 0 0 5.19739 0 11.6087C0 18.02 5.19739 23.2174 11.6087 23.2174C18.02 23.2174 23.2174 18.02 23.2174 11.6087C23.2174 5.19739 18.02 0 11.6087 0ZM12.8187 12.1186V18.4344H10.2056V12.1189H8.90003V9.94242H10.2056V8.63569C10.2056 6.86016 10.9427 5.80435 13.0372 5.80435H14.7808V7.98104H13.6909C12.8756 7.98104 12.8217 8.2852 12.8217 8.85285L12.8187 9.94217H14.7932L14.5621 12.1186H12.8187Z" fill="#FFF"/>
      </g>
    </svg>

    <svg viewBox="0 0 24 24" xmlns="http://www.w3.org/2000/svg">
      <g id="insta" class="img">
        <path fill-rule="evenodd" clip-rule="evenodd" d="M11.6956 0C5.28431 0 0.0869141 5.19739 0.0869141 11.6087C0.0869141 18.02 5.28431 23.2174 11.6956 23.2174C18.1069 23.2174 23.3043 18.02 23.3043 11.6087C23.3043 5.19739 18.1069 0 11.6956 0ZM9.14324 5.4548C9.80366 5.42475 10.0147 5.41739 11.6962 5.41739H11.6942C13.3762 5.41739 13.5865 5.42475 14.2469 5.4548C14.906 5.48498 15.3562 5.58933 15.7509 5.74244C16.1585 5.90045 16.5028 6.11199 16.8472 6.45638C17.1916 6.80052 17.4032 7.14595 17.5618 7.55316C17.714 7.94683 17.8185 8.39673 17.8495 9.05585C17.8791 9.71627 17.8869 9.92729 17.8869 11.6088C17.8869 13.2902 17.8791 13.5007 17.8495 14.1612C17.8185 14.82 17.714 15.2701 17.5618 15.6639C17.4032 16.0709 17.1916 16.4164 16.8472 16.7605C16.5032 17.1049 16.1583 17.3169 15.7512 17.4751C15.3573 17.6282 14.9069 17.7325 14.2478 17.7627C13.5874 17.7928 13.377 17.8001 11.6954 17.8001C10.014 17.8001 9.80314 17.7928 9.14273 17.7627C8.48373 17.7325 8.0337 17.6282 7.63977 17.4751C7.23282 17.3169 6.88739 17.1049 6.54338 16.7605C6.19912 16.4164 5.98758 16.0709 5.82931 15.6637C5.67633 15.2701 5.57198 14.8201 5.54167 14.161C5.51175 13.5006 5.50427 13.2902 5.50427 11.6088C5.50427 9.92729 5.51201 9.71614 5.54154 9.05573C5.57121 8.39686 5.67569 7.94683 5.82918 7.55303C5.98784 7.14595 6.19938 6.80052 6.54377 6.45638C6.88791 6.11212 7.23334 5.90058 7.64055 5.74244C8.03421 5.58933 8.48412 5.48498 9.14324 5.4548Z" fill="#754E9A"/>
        <path fill-rule="evenodd" clip-rule="evenodd" d="M11.1408 6.53313C11.2486 6.53296 11.3646 6.53301 11.4898 6.53307L11.6962 6.53313C13.3493 6.53313 13.5452 6.53906 14.198 6.56873C14.8017 6.59633 15.1293 6.6972 15.3475 6.78195C15.6365 6.89416 15.8425 7.02831 16.059 7.24501C16.2757 7.46171 16.4099 7.66809 16.5224 7.95702C16.6071 8.175 16.7081 8.50263 16.7356 9.10629C16.7652 9.75896 16.7717 9.95502 16.7717 11.6073C16.7717 13.2597 16.7652 13.4557 16.7356 14.1084C16.708 14.7121 16.6071 15.0397 16.5224 15.2577C16.4101 15.5466 16.2757 15.7523 16.059 15.9689C15.8423 16.1856 15.6366 16.3198 15.3475 16.432C15.1296 16.5171 14.8017 16.6177 14.198 16.6453C13.5453 16.675 13.3493 16.6814 11.6962 16.6814C10.043 16.6814 9.84702 16.675 9.19435 16.6453C8.59069 16.6175 8.26306 16.5166 8.04469 16.4318C7.75576 16.3196 7.54938 16.1855 7.33268 15.9688C7.11598 15.7521 6.98184 15.5462 6.86936 15.2572C6.78462 15.0392 6.68362 14.7115 6.65614 14.1079C6.62648 13.4552 6.62054 13.2592 6.62054 11.6058C6.62054 9.95244 6.62648 9.75741 6.65614 9.10474C6.68375 8.50108 6.78462 8.17346 6.86936 7.95521C6.98158 7.66628 7.11598 7.4599 7.33268 7.2432C7.54938 7.0265 7.75576 6.89236 8.04469 6.77988C8.26293 6.69475 8.59069 6.59414 9.19435 6.56641C9.7655 6.54061 9.98684 6.53287 11.1408 6.53158V6.53313ZM15.001 7.56116C14.5909 7.56116 14.2581 7.89355 14.2581 8.30386C14.2581 8.71404 14.5909 9.04683 15.001 9.04683C15.4112 9.04683 15.744 8.71404 15.744 8.30386C15.744 7.89368 15.4112 7.5609 15.001 7.5609V7.56116ZM8.5166 11.6088C8.5166 9.85291 9.94016 8.42931 11.696 8.42924C13.4519 8.42924 14.8751 9.85287 14.8751 11.6088C14.8751 13.3647 13.452 14.7876 11.6961 14.7876C9.94023 14.7876 8.5166 13.3647 8.5166 11.6088Z" fill="#754E9A"/>
        <path fill-rule="evenodd" clip-rule="evenodd" d="M11.6962 9.54498C12.836 9.54498 13.76 10.4689 13.76 11.6088C13.76 12.7485 12.836 13.6726 11.6962 13.6726C10.5564 13.6726 9.63245 12.7485 9.63245 11.6088C9.63245 10.4689 10.5564 9.54498 11.6962 9.54498V9.54498Z" fill="#754E9A"/>
      </g>
    </svg>

    <svg viewBox="0 0 24 24" xmlns="http://www.w3.org/2000/svg">
      <g id="ok" class="img">
        <path fill-rule="evenodd" clip-rule="evenodd" d="M0.391357 11.6087C0.391357 5.19739 5.58875 0 12.0001 0C18.4114 0 23.6088 5.19739 23.6088 11.6087C23.6088 18.02 18.4114 23.2174 12.0001 23.2174C5.58875 23.2174 0.391357 18.02 0.391357 11.6087ZM11.9922 11.7951C13.704 11.7951 15.0955 10.4517 15.0955 8.80016C15.0955 7.14811 13.704 5.80435 11.9922 5.80435C10.2807 5.80435 8.88881 7.14811 8.88881 8.80016C8.88881 10.4517 10.2807 11.7951 11.9922 11.7951ZM15.0578 13.5198C14.4966 13.86 13.8874 14.1012 13.2557 14.2402L14.9905 15.915C15.3459 16.2573 15.3459 16.8133 14.9905 17.156C14.6355 17.4987 14.0601 17.4987 13.7054 17.156L11.9997 15.5102L10.2955 17.156C10.1178 17.3272 9.88494 17.4129 9.65209 17.4129C9.41962 17.4129 9.18714 17.3272 9.00944 17.156C8.65441 16.8133 8.65441 16.2577 9.00907 15.915L10.7441 14.2402C10.1124 14.1012 9.50317 13.8596 8.94203 13.5198C8.51737 13.2613 8.38981 12.7198 8.65738 12.3096C8.92421 11.8987 9.48535 11.7751 9.91075 12.0335C11.1812 12.805 12.8178 12.8052 14.089 12.0335C14.5144 11.7751 15.0754 11.8987 15.3428 12.3096C15.6104 12.7195 15.4824 13.2613 15.0578 13.5198Z" fill="#754E9A"/>
        <path fill-rule="evenodd" clip-rule="evenodd" d="M11.9922 7.56C12.7007 7.56 13.2771 8.11618 13.2771 8.80016C13.2771 9.4836 12.7007 10.0401 11.9922 10.0401C11.2841 10.0401 10.7072 9.4836 10.7072 8.80016C10.7072 8.11618 11.2841 7.56 11.9922 7.56Z" fill="#754E9A"/>
      </g>
    </svg>

    <svg viewBox="0 0 24 24" xmlns="http://www.w3.org/2000/svg">
      <g id="twitter" class="img">
        <path fill-rule="evenodd" clip-rule="evenodd" d="M12.3913 0C5.97998 0 0.782593 5.19739 0.782593 11.6087C0.782593 18.02 5.97998 23.2174 12.3913 23.2174C18.8026 23.2174 24 18.02 24 11.6087C24 5.19739 18.8026 0 12.3913 0ZM12.068 9.83738L12.0436 9.4357C11.9705 8.39459 12.612 7.44366 13.627 7.07476C14.0006 6.9436 14.6339 6.9272 15.048 7.04197C15.2104 7.09115 15.519 7.25511 15.7382 7.40267L16.1361 7.67319L16.5746 7.53383C16.8182 7.46005 17.143 7.33708 17.2892 7.25511C17.4272 7.18133 17.549 7.14034 17.549 7.16493C17.549 7.30429 17.2486 7.77976 16.9969 8.04209C16.6558 8.41098 16.7532 8.44377 17.4435 8.19784C17.8576 8.05848 17.8657 8.05848 17.7845 8.21424C17.7358 8.29622 17.4841 8.58313 17.2161 8.84546C16.7614 9.29633 16.737 9.34552 16.737 9.72261C16.737 10.3047 16.4609 11.5179 16.1848 12.1819C15.6733 13.428 14.5771 14.715 13.4809 15.3626C11.9381 16.2726 9.88369 16.5021 8.15412 15.9693C7.5776 15.7889 6.58695 15.3298 6.58695 15.2479C6.58695 15.2233 6.88739 15.1905 7.2528 15.1823C8.01608 15.1659 8.77936 14.9527 9.42897 14.5757L9.86745 14.3133L9.36401 14.1412C8.64944 13.8952 8.00796 13.3296 7.84556 12.7968C7.79684 12.6246 7.81308 12.6164 8.2678 12.6164L8.73876 12.6082L8.34088 12.4197C7.86992 12.1819 7.43956 11.7802 7.22844 11.3704C7.07415 11.0752 6.87927 10.3292 6.93611 10.2719C6.95235 10.2473 7.12287 10.2965 7.31776 10.362C7.87804 10.567 7.95112 10.5178 7.62632 10.1735C7.01731 9.55046 6.83055 8.62412 7.12287 7.74697L7.26092 7.35348L7.79684 7.88633C8.89304 8.96023 10.1841 9.59965 11.662 9.7882L12.068 9.83738Z" fill="#754E9A"/>
      </g>
    </svg>

    <svg viewBox="0 0 24 24" xmlns="http://www.w3.org/2000/svg">
      <g id="vk" class="img">
        <path fill-rule="evenodd" clip-rule="evenodd" d="M12.3044 0C5.89307 0 0.695679 5.19739 0.695679 11.6087C0.695679 18.02 5.89307 23.2174 12.3044 23.2174C18.7157 23.2174 23.9131 18.02 23.9131 11.6087C23.9131 5.19739 18.7157 0 12.3044 0ZM13.2496 15.2733C13.1351 15.394 12.9116 15.4183 12.9116 15.4183H12.1715C12.1715 15.4183 10.5388 15.5146 9.10038 14.0451C7.53178 12.4417 6.1467 9.26062 6.1467 9.26062C6.1467 9.26062 6.06676 9.05195 6.15336 8.95148C6.25087 8.83794 6.51674 8.8308 6.51674 8.8308L8.2858 8.81951C8.2858 8.81951 8.45235 8.84626 8.57166 8.93246C8.67038 9.0038 8.72549 9.13637 8.72549 9.13637C8.72549 9.13637 9.01135 9.84619 9.38987 10.4882C10.1293 11.742 10.4733 12.0161 10.7241 11.8817C11.0899 11.6861 10.9803 10.1095 10.9803 10.1095C10.9803 10.1095 10.9869 9.53765 10.7962 9.28261C10.6484 9.08524 10.3698 9.02758 10.2468 9.01153C10.1469 8.99845 10.3104 8.77135 10.5224 8.66969C10.841 8.51691 11.403 8.50799 12.0674 8.51453C12.5852 8.51988 12.7342 8.55139 12.9365 8.59955C13.4059 8.71075 13.3913 9.06713 13.3596 9.83629C13.3502 10.0663 13.3392 10.3333 13.3392 10.6416C13.3392 10.7109 13.3372 10.7848 13.335 10.8608C13.3241 11.2548 13.3115 11.706 13.576 11.874C13.7117 11.9596 14.043 11.8865 14.8721 10.5049C15.2651 9.84975 15.5595 9.07989 15.5595 9.07989C15.5595 9.07989 15.6243 8.94256 15.7242 8.88371C15.8265 8.82367 15.9646 8.8421 15.9646 8.8421L17.8264 8.8308C17.8264 8.8308 18.386 8.76481 18.4762 9.01331C18.5713 9.2731 18.2673 9.88067 17.5066 10.8758C16.785 11.8201 16.4339 12.1678 16.4661 12.4752C16.4896 12.6999 16.7179 12.9031 17.1559 13.3019C18.0703 14.1353 18.3154 14.5737 18.3743 14.679C18.3792 14.6878 18.3828 14.6942 18.3854 14.6984C18.7954 15.366 17.9305 15.4183 17.9305 15.4183L16.2765 15.4409C16.2765 15.4409 15.9216 15.5099 15.4541 15.1948C15.2092 15.0299 14.9698 14.7606 14.7419 14.504C14.3938 14.1122 14.0722 13.7503 13.7977 13.8358C13.3368 13.9797 13.3507 14.954 13.3507 14.954C13.3507 14.954 13.3543 15.1627 13.2496 15.2733Z" fill="#754E9A"/>
      </g>
    </svg>

    <svg viewBox="0 0 24 24" xmlns="http://www.w3.org/2000/svg">
      <g id="fb-white" class="img">
        <path fill-rule="evenodd" clip-rule="evenodd" d="M11.6087 0C5.19739 0 0 5.19739 0 11.6087C0 18.02 5.19739 23.2174 11.6087 23.2174C18.02 23.2174 23.2174 18.02 23.2174 11.6087C23.2174 5.19739 18.02 0 11.6087 0ZM12.8187 12.1186V18.4344H10.2056V12.1189H8.90003V9.94242H10.2056V8.63569C10.2056 6.86016 10.9427 5.80435 13.0372 5.80435H14.7808V7.98104H13.6909C12.8756 7.98104 12.8217 8.2852 12.8217 8.85285L12.8187 9.94217H14.7932L14.5621 12.1186H12.8187Z" fill="#FFF"/>
      </g>
    </svg>

    <svg viewBox="0 0 24 24" xmlns="http://www.w3.org/2000/svg">
      <g id="insta-white" class="img">
        <path fill-rule="evenodd" clip-rule="evenodd" d="M11.6956 0C5.28431 0 0.0869141 5.19739 0.0869141 11.6087C0.0869141 18.02 5.28431 23.2174 11.6956 23.2174C18.1069 23.2174 23.3043 18.02 23.3043 11.6087C23.3043 5.19739 18.1069 0 11.6956 0ZM9.14324 5.4548C9.80366 5.42475 10.0147 5.41739 11.6962 5.41739H11.6942C13.3762 5.41739 13.5865 5.42475 14.2469 5.4548C14.906 5.48498 15.3562 5.58933 15.7509 5.74244C16.1585 5.90045 16.5028 6.11199 16.8472 6.45638C17.1916 6.80052 17.4032 7.14595 17.5618 7.55316C17.714 7.94683 17.8185 8.39673 17.8495 9.05585C17.8791 9.71627 17.8869 9.92729 17.8869 11.6088C17.8869 13.2902 17.8791 13.5007 17.8495 14.1612C17.8185 14.82 17.714 15.2701 17.5618 15.6639C17.4032 16.0709 17.1916 16.4164 16.8472 16.7605C16.5032 17.1049 16.1583 17.3169 15.7512 17.4751C15.3573 17.6282 14.9069 17.7325 14.2478 17.7627C13.5874 17.7928 13.377 17.8001 11.6954 17.8001C10.014 17.8001 9.80314 17.7928 9.14273 17.7627C8.48373 17.7325 8.0337 17.6282 7.63977 17.4751C7.23282 17.3169 6.88739 17.1049 6.54338 16.7605C6.19912 16.4164 5.98758 16.0709 5.82931 15.6637C5.67633 15.2701 5.57198 14.8201 5.54167 14.161C5.51175 13.5006 5.50427 13.2902 5.50427 11.6088C5.50427 9.92729 5.51201 9.71614 5.54154 9.05573C5.57121 8.39686 5.67569 7.94683 5.82918 7.55303C5.98784 7.14595 6.19938 6.80052 6.54377 6.45638C6.88791 6.11212 7.23334 5.90058 7.64055 5.74244C8.03421 5.58933 8.48412 5.48498 9.14324 5.4548Z" fill="#FFF"/>
        <path fill-rule="evenodd" clip-rule="evenodd" d="M11.1408 6.53313C11.2486 6.53296 11.3646 6.53301 11.4898 6.53307L11.6962 6.53313C13.3493 6.53313 13.5452 6.53906 14.198 6.56873C14.8017 6.59633 15.1293 6.6972 15.3475 6.78195C15.6365 6.89416 15.8425 7.02831 16.059 7.24501C16.2757 7.46171 16.4099 7.66809 16.5224 7.95702C16.6071 8.175 16.7081 8.50263 16.7356 9.10629C16.7652 9.75896 16.7717 9.95502 16.7717 11.6073C16.7717 13.2597 16.7652 13.4557 16.7356 14.1084C16.708 14.7121 16.6071 15.0397 16.5224 15.2577C16.4101 15.5466 16.2757 15.7523 16.059 15.9689C15.8423 16.1856 15.6366 16.3198 15.3475 16.432C15.1296 16.5171 14.8017 16.6177 14.198 16.6453C13.5453 16.675 13.3493 16.6814 11.6962 16.6814C10.043 16.6814 9.84702 16.675 9.19435 16.6453C8.59069 16.6175 8.26306 16.5166 8.04469 16.4318C7.75576 16.3196 7.54938 16.1855 7.33268 15.9688C7.11598 15.7521 6.98184 15.5462 6.86936 15.2572C6.78462 15.0392 6.68362 14.7115 6.65614 14.1079C6.62648 13.4552 6.62054 13.2592 6.62054 11.6058C6.62054 9.95244 6.62648 9.75741 6.65614 9.10474C6.68375 8.50108 6.78462 8.17346 6.86936 7.95521C6.98158 7.66628 7.11598 7.4599 7.33268 7.2432C7.54938 7.0265 7.75576 6.89236 8.04469 6.77988C8.26293 6.69475 8.59069 6.59414 9.19435 6.56641C9.7655 6.54061 9.98684 6.53287 11.1408 6.53158V6.53313ZM15.001 7.56116C14.5909 7.56116 14.2581 7.89355 14.2581 8.30386C14.2581 8.71404 14.5909 9.04683 15.001 9.04683C15.4112 9.04683 15.744 8.71404 15.744 8.30386C15.744 7.89368 15.4112 7.5609 15.001 7.5609V7.56116ZM8.5166 11.6088C8.5166 9.85291 9.94016 8.42931 11.696 8.42924C13.4519 8.42924 14.8751 9.85287 14.8751 11.6088C14.8751 13.3647 13.452 14.7876 11.6961 14.7876C9.94023 14.7876 8.5166 13.3647 8.5166 11.6088Z" fill="#FFF"/>
        <path fill-rule="evenodd" clip-rule="evenodd" d="M11.6962 9.54498C12.836 9.54498 13.76 10.4689 13.76 11.6088C13.76 12.7485 12.836 13.6726 11.6962 13.6726C10.5564 13.6726 9.63245 12.7485 9.63245 11.6088C9.63245 10.4689 10.5564 9.54498 11.6962 9.54498V9.54498Z" fill="#FFF"/>
      </g>
    </svg>

    <svg viewBox="0 0 24 24" xmlns="http://www.w3.org/2000/svg">
      <g id="ok-white" class="img">
        <path fill-rule="evenodd" clip-rule="evenodd" d="M0.391357 11.6087C0.391357 5.19739 5.58875 0 12.0001 0C18.4114 0 23.6088 5.19739 23.6088 11.6087C23.6088 18.02 18.4114 23.2174 12.0001 23.2174C5.58875 23.2174 0.391357 18.02 0.391357 11.6087ZM11.9922 11.7951C13.704 11.7951 15.0955 10.4517 15.0955 8.80016C15.0955 7.14811 13.704 5.80435 11.9922 5.80435C10.2807 5.80435 8.88881 7.14811 8.88881 8.80016C8.88881 10.4517 10.2807 11.7951 11.9922 11.7951ZM15.0578 13.5198C14.4966 13.86 13.8874 14.1012 13.2557 14.2402L14.9905 15.915C15.3459 16.2573 15.3459 16.8133 14.9905 17.156C14.6355 17.4987 14.0601 17.4987 13.7054 17.156L11.9997 15.5102L10.2955 17.156C10.1178 17.3272 9.88494 17.4129 9.65209 17.4129C9.41962 17.4129 9.18714 17.3272 9.00944 17.156C8.65441 16.8133 8.65441 16.2577 9.00907 15.915L10.7441 14.2402C10.1124 14.1012 9.50317 13.8596 8.94203 13.5198C8.51737 13.2613 8.38981 12.7198 8.65738 12.3096C8.92421 11.8987 9.48535 11.7751 9.91075 12.0335C11.1812 12.805 12.8178 12.8052 14.089 12.0335C14.5144 11.7751 15.0754 11.8987 15.3428 12.3096C15.6104 12.7195 15.4824 13.2613 15.0578 13.5198Z" fill="#FFF"/>
        <path fill-rule="evenodd" clip-rule="evenodd" d="M11.9922 7.56C12.7007 7.56 13.2771 8.11618 13.2771 8.80016C13.2771 9.4836 12.7007 10.0401 11.9922 10.0401C11.2841 10.0401 10.7072 9.4836 10.7072 8.80016C10.7072 8.11618 11.2841 7.56 11.9922 7.56Z" fill="#FFF"/>
      </g>
    </svg>

    <svg viewBox="0 0 24 24" xmlns="http://www.w3.org/2000/svg">
      <g id="twitter-white" class="img">
        <path fill-rule="evenodd" clip-rule="evenodd" d="M12.3913 0C5.97998 0 0.782593 5.19739 0.782593 11.6087C0.782593 18.02 5.97998 23.2174 12.3913 23.2174C18.8026 23.2174 24 18.02 24 11.6087C24 5.19739 18.8026 0 12.3913 0ZM12.068 9.83738L12.0436 9.4357C11.9705 8.39459 12.612 7.44366 13.627 7.07476C14.0006 6.9436 14.6339 6.9272 15.048 7.04197C15.2104 7.09115 15.519 7.25511 15.7382 7.40267L16.1361 7.67319L16.5746 7.53383C16.8182 7.46005 17.143 7.33708 17.2892 7.25511C17.4272 7.18133 17.549 7.14034 17.549 7.16493C17.549 7.30429 17.2486 7.77976 16.9969 8.04209C16.6558 8.41098 16.7532 8.44377 17.4435 8.19784C17.8576 8.05848 17.8657 8.05848 17.7845 8.21424C17.7358 8.29622 17.4841 8.58313 17.2161 8.84546C16.7614 9.29633 16.737 9.34552 16.737 9.72261C16.737 10.3047 16.4609 11.5179 16.1848 12.1819C15.6733 13.428 14.5771 14.715 13.4809 15.3626C11.9381 16.2726 9.88369 16.5021 8.15412 15.9693C7.5776 15.7889 6.58695 15.3298 6.58695 15.2479C6.58695 15.2233 6.88739 15.1905 7.2528 15.1823C8.01608 15.1659 8.77936 14.9527 9.42897 14.5757L9.86745 14.3133L9.36401 14.1412C8.64944 13.8952 8.00796 13.3296 7.84556 12.7968C7.79684 12.6246 7.81308 12.6164 8.2678 12.6164L8.73876 12.6082L8.34088 12.4197C7.86992 12.1819 7.43956 11.7802 7.22844 11.3704C7.07415 11.0752 6.87927 10.3292 6.93611 10.2719C6.95235 10.2473 7.12287 10.2965 7.31776 10.362C7.87804 10.567 7.95112 10.5178 7.62632 10.1735C7.01731 9.55046 6.83055 8.62412 7.12287 7.74697L7.26092 7.35348L7.79684 7.88633C8.89304 8.96023 10.1841 9.59965 11.662 9.7882L12.068 9.83738Z" fill="#FFF"/>
      </g>
    </svg>

    <svg viewBox="0 0 24 24" xmlns="http://www.w3.org/2000/svg">
      <g id="vk-white" class="img">
        <path fill-rule="evenodd" clip-rule="evenodd" d="M12.3044 0C5.89307 0 0.695679 5.19739 0.695679 11.6087C0.695679 18.02 5.89307 23.2174 12.3044 23.2174C18.7157 23.2174 23.9131 18.02 23.9131 11.6087C23.9131 5.19739 18.7157 0 12.3044 0ZM13.2496 15.2733C13.1351 15.394 12.9116 15.4183 12.9116 15.4183H12.1715C12.1715 15.4183 10.5388 15.5146 9.10038 14.0451C7.53178 12.4417 6.1467 9.26062 6.1467 9.26062C6.1467 9.26062 6.06676 9.05195 6.15336 8.95148C6.25087 8.83794 6.51674 8.8308 6.51674 8.8308L8.2858 8.81951C8.2858 8.81951 8.45235 8.84626 8.57166 8.93246C8.67038 9.0038 8.72549 9.13637 8.72549 9.13637C8.72549 9.13637 9.01135 9.84619 9.38987 10.4882C10.1293 11.742 10.4733 12.0161 10.7241 11.8817C11.0899 11.6861 10.9803 10.1095 10.9803 10.1095C10.9803 10.1095 10.9869 9.53765 10.7962 9.28261C10.6484 9.08524 10.3698 9.02758 10.2468 9.01153C10.1469 8.99845 10.3104 8.77135 10.5224 8.66969C10.841 8.51691 11.403 8.50799 12.0674 8.51453C12.5852 8.51988 12.7342 8.55139 12.9365 8.59955C13.4059 8.71075 13.3913 9.06713 13.3596 9.83629C13.3502 10.0663 13.3392 10.3333 13.3392 10.6416C13.3392 10.7109 13.3372 10.7848 13.335 10.8608C13.3241 11.2548 13.3115 11.706 13.576 11.874C13.7117 11.9596 14.043 11.8865 14.8721 10.5049C15.2651 9.84975 15.5595 9.07989 15.5595 9.07989C15.5595 9.07989 15.6243 8.94256 15.7242 8.88371C15.8265 8.82367 15.9646 8.8421 15.9646 8.8421L17.8264 8.8308C17.8264 8.8308 18.386 8.76481 18.4762 9.01331C18.5713 9.2731 18.2673 9.88067 17.5066 10.8758C16.785 11.8201 16.4339 12.1678 16.4661 12.4752C16.4896 12.6999 16.7179 12.9031 17.1559 13.3019C18.0703 14.1353 18.3154 14.5737 18.3743 14.679C18.3792 14.6878 18.3828 14.6942 18.3854 14.6984C18.7954 15.366 17.9305 15.4183 17.9305 15.4183L16.2765 15.4409C16.2765 15.4409 15.9216 15.5099 15.4541 15.1948C15.2092 15.0299 14.9698 14.7606 14.7419 14.504C14.3938 14.1122 14.0722 13.7503 13.7977 13.8358C13.3368 13.9797 13.3507 14.954 13.3507 14.954C13.3507 14.954 13.3543 15.1627 13.2496 15.2733Z" fill="#FFF"/>
      </g>
    </svg>








</svg>